<svg width="251" height="84" viewBox="0 0 251 84" fill="none" xmlns="http://www.w3.org/2000/svg">
<path d="M250 42C250 47.363 246.753 52.6298 240.517 57.5641C234.292 62.4898 225.222 66.9695 213.925 70.7502C191.341 78.3081 160.078 83 125.5 83C90.922 83 59.6592 78.3081 37.0755 70.7502C25.7784 66.9695 16.7083 62.4898 10.4829 57.5641C4.24668 52.6298 1 47.363 1 42C1 36.637 4.24668 31.3702 10.4829 26.4359C16.7083 21.5102 25.7784 17.0305 37.0755 13.2498C59.6592 5.69192 90.922 1 125.5 1C160.078 1 191.341 5.69192 213.925 13.2498C225.222 17.0305 234.292 21.5102 240.517 26.4359C246.753 31.3702 250 36.637 250 42Z" fill="#D2D2DE" stroke="black" stroke-width="2"/>
<path d="M197.821 34.9513L197.784 35.0849V35.2237C197.784 38.2134 195.995 41.2152 192.405 44.0869C188.825 46.9509 183.584 49.5742 177.018 51.796C163.896 56.2361 145.705 59 125.565 59C105.425 59 87.2332 56.2361 74.1115 51.796C67.5457 49.5742 62.3041 46.9509 58.7243 44.0869C55.1348 41.2152 53.3456 38.2134 53.3456 35.2237V35.1653L53.3389 35.1073C51.8084 22.0462 55.5929 14.4564 61.8566 10.1578C68.2287 5.7847 77.393 4.64981 86.9387 5.08729C96.4491 5.52316 106.145 7.50828 113.439 9.19142C115.005 9.55299 116.471 9.90307 117.8 10.2205C119.541 10.6362 121.047 10.9959 122.236 11.2517C123.28 11.4761 124.153 11.6373 124.764 11.6816C125.042 11.7017 125.404 11.7112 125.721 11.6126C125.884 11.5618 126.175 11.4402 126.38 11.1381C126.47 11.0046 126.524 10.867 126.551 10.7335C126.613 10.6961 126.695 10.65 126.804 10.5961C127.303 10.3487 128.112 10.051 129.217 9.72607C131.414 9.0808 134.623 8.37411 138.491 7.75034C146.226 6.50306 156.498 5.60249 166.399 6.16185C176.338 6.72334 185.729 8.7478 191.849 13.208C194.886 15.4208 197.1 18.2202 198.205 21.7408C199.312 25.2687 199.333 29.6114 197.821 34.9513ZM126.393 10.8466C126.393 10.8466 126.396 10.8436 126.402 10.8372C126.397 10.8434 126.393 10.8466 126.393 10.8466Z" fill="#7D8576" stroke="black" stroke-width="2"/>
</svg>
